<?xml version="1.0" encoding="UTF-8"?>
<svg version="1.1" xmlns="http://www.w3.org/2000/svg" width="180" height="180">
<path d="M0 0 C0.495 0.33 0.99 0.66 1.5 1 C1.5 1.66 1.5 2.32 1.5 3 C23.28 3 45.06 3 67.5 3 C67.5 2.34 67.5 1.68 67.5 1 C71.24918446 -1.49945631 75.15746889 -1.61219893 79.5 -1 C86.84436705 1.70581944 90.10668541 7.14827125 93.5 14 C100.75650316 32.2116118 108.66201372 61.37120478 102.375 80.75 C99.67010674 85.43848165 96.75071936 88.24976021 91.5 90 C86.25105833 90.39614654 82.94657906 89.86557317 78.5 87 C74.87424556 83.10249276 73.13168896 79.1738243 71.375 74.25 C70.98707275 73.19135742 70.98707275 73.19135742 70.59130859 72.11132812 C68.80443339 67.13139954 67.43139304 62.215801 66.5 57 C65.75379395 57.16226074 65.00758789 57.32452148 64.23876953 57.49169922 C59.04419198 58.19792297 53.91611432 58.14250218 48.6796875 58.1328125 C46.97536057 58.13424759 46.97536057 58.13424759 45.23660278 58.13571167 C42.84116561 58.13639064 40.44572658 58.1345561 38.05029297 58.13037109 C34.38114303 58.12500898 30.71211495 58.13033079 27.04296875 58.13671875 C24.7135414 58.13605811 22.38411412 58.13477725 20.0546875 58.1328125 C18.95671844 58.13483673 17.85874939 58.13686096 16.72750854 58.13894653 C15.70609772 58.13579437 14.68468689 58.13264221 13.63232422 58.12939453 C12.73552948 58.12859894 11.83873474 58.12780334 10.9147644 58.12698364 C8.5 58 8.5 58 6.30422974 57.42941284 C4.41392046 56.77547592 4.41392046 56.77547592 2.5 58 C1.54649263 60.31238525 1.54649263 60.31238525 0.73046875 63.13671875 C0.23256836 64.71549805 0.23256836 64.71549805 -0.27539062 66.32617188 C-0.96027774 68.54592841 -1.64006898 70.76726441 -2.31445312 72.99023438 C-4.48858431 79.84646765 -6.3528277 85.59900551 -12.875 89.375 C-18.99885857 90.83306156 -23.21462492 90.03182904 -28.703125 87.265625 C-31.73443739 85.13052671 -33.19799957 82.96787454 -34.30078125 79.43359375 C-37.82350016 58.80820896 -33.5537553 25.89343136 -21.5625 8.5625 C-20.89347656 7.57378906 -20.22445312 6.58507813 -19.53515625 5.56640625 C-14.59201535 -0.6670747 -7.58817773 -3.03527109 0 0 Z " fill="#610202" transform="translate(55.5,46)"/>
<path d="M0 0 C11.03503353 7.26452093 14.07678642 23.00223967 16.59765625 35.1015625 C23.99449136 72.32204831 23.99449136 72.32204831 17.4375 83.6875 C13.83291837 87.57769056 10.47575345 89.53366955 5.125 89.9375 C0.07289404 89.59498434 -3.07643008 88.28495188 -6.54296875 84.55859375 C-8.93637812 81.15597115 -10.29539813 77.83263767 -11.6875 73.9375 C-11.95046875 73.23028809 -12.2134375 72.52307617 -12.484375 71.79443359 C-13.86862705 67.98162319 -14.92118591 64.33052911 -15.5625 60.3125 C-16.0575 58.518125 -16.0575 58.518125 -16.5625 56.6875 C-19.54533157 54.99584699 -19.54533157 54.99584699 -22.5625 54.6875 C-22.5625 54.0275 -22.5625 53.3675 -22.5625 52.6875 C-25.5325 52.1925 -25.5325 52.1925 -28.5625 51.6875 C-27.26091739 49.08433478 -26.23850227 49.11416513 -23.5625 48.125 C-20.89902554 46.86259918 -19.80776065 46.30569124 -18.70703125 43.53125 C-18.37026974 41.09071954 -18.15458405 39.1215479 -18.5625 36.6875 C-20.12486016 34.75545462 -21.33981609 33.79884195 -23.5625 32.6875 C-25.53681598 32.51421471 -27.51861939 32.4206318 -29.5 32.375 C-30.56089844 32.33761719 -31.62179688 32.30023438 -32.71484375 32.26171875 C-35.5875163 32.43495917 -35.5875163 32.43495917 -37.3671875 34.22265625 C-38.97449164 37.53706446 -39.3772559 40.81948842 -39.75 44.4375 C-39.83185547 45.13488281 -39.91371094 45.83226562 -39.99804688 46.55078125 C-40.19727133 48.26176776 -40.38139929 49.97450037 -40.5625 51.6875 C-44.35280829 52.05729721 -48.14482333 52.40541332 -51.9375 52.75 C-52.99839844 52.85376953 -54.05929688 52.95753906 -55.15234375 53.06445312 C-71.77854364 54.54347091 -71.77854364 54.54347091 -77.5625 50.6875 C-77.5625 50.0275 -77.5625 49.3675 -77.5625 48.6875 C-76.81484375 48.67332031 -76.0671875 48.65914062 -75.296875 48.64453125 C-69.1104204 48.43153789 -69.1104204 48.43153789 -63.8125 45.5625 C-62.12714741 41.68618904 -62.24997232 39.69800123 -63.5625 35.6875 C-67.53649965 32.18659555 -71.52789353 30.89580555 -76.5625 29.6875 C-76.55089844 28.86765625 -76.53929687 28.0478125 -76.52734375 27.203125 C-76.51380859 25.58664063 -76.51380859 25.58664063 -76.5 23.9375 C-76.48839844 22.87015625 -76.47679687 21.8028125 -76.46484375 20.703125 C-76.54739913 18.15381499 -76.81632442 16.10816409 -77.5625 13.6875 C-75.9125 13.0275 -74.2625 12.3675 -72.5625 11.6875 C-72.50191406 12.53054687 -72.44132812 13.37359375 -72.37890625 14.2421875 C-72.29511719 15.33789062 -72.21132812 16.43359375 -72.125 17.5625 C-72.00318359 19.19832031 -72.00318359 19.19832031 -71.87890625 20.8671875 C-71.73248297 23.63478971 -71.73248297 23.63478971 -70.5625 25.6875 C-64.4569529 25.71214513 -58.35143449 25.73033371 -52.24584961 25.74243164 C-50.16706844 25.74747288 -48.08829084 25.75430574 -46.00952148 25.76293945 C-43.02847414 25.77501422 -40.04747351 25.78073024 -37.06640625 25.78515625 C-36.13099503 25.79031754 -35.1955838 25.79547882 -34.23182678 25.80079651 C-33.37100998 25.80087204 -32.51019318 25.80094757 -31.62329102 25.80102539 C-30.86162125 25.803246 -30.09995148 25.80546661 -29.31520081 25.80775452 C-27.53439395 25.87840955 -27.53439395 25.87840955 -26.5625 24.6875 C-26.40594973 23.20111008 -26.31183057 21.70800873 -26.24609375 20.21484375 C-26.18325195 18.86616211 -26.18325195 18.86616211 -26.11914062 17.49023438 C-26.07982422 16.54470703 -26.04050781 15.59917969 -26 14.625 C-25.93522461 13.2009082 -25.93522461 13.2009082 -25.86914062 11.74804688 C-25.76270868 9.39471824 -25.66206846 7.04112901 -25.5625 4.6875 C-22.2625 4.0275 -18.9625 3.3675 -15.5625 2.6875 C-15.5625 2.0275 -15.5625 1.3675 -15.5625 0.6875 C-10.56345945 -2.6451937 -5.32668809 -1.96246403 0 0 Z " fill="#B6130F" transform="translate(138.5625,46.3125)"/>
<path d="M0 0 C2.1812992 3.2719488 2.69025398 5.52462725 3.47265625 9.35546875 C3.73240234 10.61810547 3.99214844 11.88074219 4.25976562 13.18164062 C4.39165283 13.84010986 4.52354004 14.4985791 4.65942383 15.17700195 C5.05789015 17.16450661 5.4665143 19.14970283 5.87695312 21.13476562 C12.51172882 53.71300338 12.51172882 53.71300338 6 65 C2.39541837 68.89019056 -0.96174655 70.84616955 -6.3125 71.25 C-11.36460596 70.90748434 -14.51393008 69.59745188 -17.98046875 65.87109375 C-20.37387812 62.46847115 -21.73289813 59.14513767 -23.125 55.25 C-23.51945312 54.18918213 -23.51945312 54.18918213 -23.921875 53.10693359 C-25.30612705 49.29412319 -26.35868591 45.64302911 -27 41.625 C-27.33 40.42875 -27.66 39.2325 -28 38 C-30.98283157 36.30834699 -30.98283157 36.30834699 -34 36 C-34 35.34 -34 34.68 -34 34 C-35.98 33.67 -37.96 33.34 -40 33 C-39.67 32.34 -39.34 31.68 -39 31 C-35.85554549 30.15014743 -33.29227921 30 -30 30 C-28.65835921 29.7018576 -27.32148827 29.37756808 -26 29 C-25.95101562 28.21753906 -25.90203125 27.43507813 -25.8515625 26.62890625 C-25.77679688 25.61699219 -25.70203125 24.60507813 -25.625 23.5625 C-25.55539063 22.55316406 -25.48578125 21.54382813 -25.4140625 20.50390625 C-25.20910156 19.26447266 -25.20910156 19.26447266 -25 18 C-24.34 17.67 -23.68 17.34 -23 17 C-23 15.35 -23 13.7 -23 12 C-22.6596875 12.928125 -22.6596875 12.928125 -22.3125 13.875 C-20.5371368 16.74939757 -19.26511006 17.20186198 -16 18 C-12.43992779 17.75333604 -12.43992779 17.75333604 -9 17 C-8.236875 16.9175 -7.47375 16.835 -6.6875 16.75 C-4.71052789 16.09066305 -4.71052789 16.09066305 -3.8125 13.5 C-3.544375 12.675 -3.27625 11.85 -3 11 C-2.67 10.67 -2.34 10.34 -2 10 C-1.6068352 8.32115762 -1.25914548 6.63149955 -0.9375 4.9375 C-0.76089844 4.01839844 -0.58429688 3.09929687 -0.40234375 2.15234375 C-0.26957031 1.44207031 -0.13679688 0.73179688 0 0 Z " fill="#B50D0A" transform="translate(150,65)"/>
<path d="M0 0 C0.98226059 -0.0033284 1.96452118 -0.0066568 2.97654724 -0.01008606 C5.0484063 -0.0151385 7.12027346 -0.01749491 9.19213867 -0.01733398 C12.36325392 -0.01952583 15.53402413 -0.0377141 18.70507812 -0.05664062 C20.7200509 -0.0595738 22.73502531 -0.0615591 24.75 -0.0625 C26.17198448 -0.07327827 26.17198448 -0.07327827 27.62269592 -0.08427429 C28.50718918 -0.08119766 29.39168243 -0.07812103 30.30297852 -0.07495117 C31.46616356 -0.0770887 31.46616356 -0.0770887 32.65284729 -0.07926941 C35.07486581 0.19850695 36.70621939 0.96309432 38.80859375 2.16796875 C37.81859375 2.16796875 36.82859375 2.16796875 35.80859375 2.16796875 C35.8243042 3.06104736 35.8243042 3.06104736 35.84033203 3.97216797 C35.88183324 6.66239218 35.90790079 9.35254912 35.93359375 12.04296875 C35.95035156 12.98011719 35.96710938 13.91726562 35.984375 14.8828125 C35.99404297 16.22666016 35.99404297 16.22666016 36.00390625 17.59765625 C36.0196167 18.83878174 36.0196167 18.83878174 36.03564453 20.10498047 C35.80859375 22.16796875 35.80859375 22.16796875 33.80859375 24.16796875 C31.94236755 24.41520691 31.94236755 24.41520691 29.65014648 24.41088867 C28.7926329 24.4139653 27.93511932 24.41704193 27.05162048 24.42021179 C26.1245076 24.41302628 25.19739471 24.40584076 24.2421875 24.3984375 C23.29295914 24.39797928 22.34373077 24.39752106 21.36573792 24.39704895 C19.35750072 24.39402513 17.34926591 24.38613499 15.34106445 24.3737793 C12.25528726 24.35552314 9.16980992 24.35326957 6.08398438 24.35351562 C4.13671614 24.34860058 2.18944995 24.34277232 0.2421875 24.3359375 C-0.68694962 24.33482468 -1.61608673 24.33371185 -2.57337952 24.33256531 C-3.42774094 24.32618546 -4.28210236 24.3198056 -5.16235352 24.31323242 C-5.91799088 24.30942062 -6.67362823 24.30560883 -7.4521637 24.30168152 C-9.19140625 24.16796875 -9.19140625 24.16796875 -10.19140625 23.16796875 C-10.27826228 21.6062413 -10.29842844 20.04067531 -10.2890625 18.4765625 C-10.28583984 17.53232422 -10.28261719 16.58808594 -10.27929688 15.61523438 C-10.27091797 14.62201172 -10.26253906 13.62878906 -10.25390625 12.60546875 C-10.24939453 11.60837891 -10.24488281 10.61128906 -10.24023438 9.58398438 C-10.22840632 7.11192026 -10.21192474 4.63997357 -10.19140625 2.16796875 C-11.84140625 2.16796875 -13.49140625 2.16796875 -15.19140625 2.16796875 C-15.19140625 1.83796875 -15.19140625 1.50796875 -15.19140625 1.16796875 C-10.17060669 -0.15121656 -5.1517583 0.00606047 0 0 Z " fill="#353131" transform="translate(77.19140625,48.83203125)"/>
<path d="M0 0 C4.12507614 0.66295867 5.75668103 1.41575177 8.5 4.5625 C9.625 7.9375 9.625 7.9375 9.5 11.5625 C7.26066084 15.96120193 7.26066084 15.96120193 4.5 17.5625 C0.77911958 18.05826948 -2.77040953 17.91521083 -6.5 17.5625 C-4.63919528 20.00850478 -3.65144991 20.53419161 -0.57421875 21.109375 C1.10220703 21.20992187 1.10220703 21.20992187 2.8125 21.3125 C3.92238281 21.38984375 5.03226563 21.4671875 6.17578125 21.546875 C9.43350216 21.56218744 12.29548689 21.1040505 15.5 20.5625 C18.13589958 20.49593688 20.74148596 20.46682589 23.375 20.5 C24.06335938 20.50451172 24.75171875 20.50902344 25.4609375 20.51367188 C27.14066335 20.52533664 28.82034375 20.54326729 30.5 20.5625 C30.47679687 19.92183594 30.45359375 19.28117187 30.4296875 18.62109375 C30.31620871 13.18221731 30.43179289 8.62960743 32.5 3.5625 C35.55408999 0.63194623 37.75750975 0.15271506 41.9375 0.1875 C46.22885908 0.30208903 49.1475284 0.65702461 52.5 3.5625 C54.257938 7.07837601 53.58414356 10.86984132 52.5 14.5625 C49.53367128 17.14191627 47.20371669 18.32792777 43.5 19.5625 C45.975 20.5525 45.975 20.5525 48.5 21.5625 C48.5 22.2225 48.5 22.8825 48.5 23.5625 C49.985 24.0575 49.985 24.0575 51.5 24.5625 C48.21364439 26.75340374 47.25971966 26.81141926 43.44946289 26.80541992 C41.90755028 26.81003487 41.90755028 26.81003487 40.33448792 26.81474304 C39.22508347 26.80755753 38.11567902 26.80037201 36.97265625 26.79296875 C35.83219345 26.79251053 34.69173065 26.79205231 33.51670837 26.7915802 C31.10333212 26.78855738 28.68995783 26.78067022 26.27661133 26.76831055 C22.58082163 26.75009033 18.88528299 26.74780063 15.18945312 26.74804688 C12.846352 26.74313022 10.50325257 26.73730126 8.16015625 26.73046875 C7.05277603 26.72935593 5.94539581 26.7282431 4.80445862 26.72709656 C3.77336472 26.72071671 2.74227081 26.71433685 1.67993164 26.70776367 C0.77408829 26.70395187 -0.13175507 26.70014008 -1.06504822 26.69621277 C-3.5 26.5625 -3.5 26.5625 -5.69874573 25.99092102 C-7.58655813 25.33826282 -7.58655813 25.33826282 -9.5 26.5625 C-10.16 27.5525 -10.82 28.5425 -11.5 29.5625 C-11.5 27.9125 -11.5 26.2625 -11.5 24.5625 C-12.11875 24.294375 -12.7375 24.02625 -13.375 23.75 C-15.5 22.5625 -15.5 22.5625 -17.5 19.5625 C-17.25632887 14.52662993 -16.86530387 10.52875099 -13.5 6.5625 C-11.83678518 6.21234951 -10.16965451 5.88052943 -8.5 5.5625 C-7.71625 4.716875 -6.9325 3.87125 -6.125 3 C-3.5 0.5625 -3.5 0.5625 0 0 Z " fill="#3B0302" transform="translate(67.5,77.4375)"/>
<path d="M0 0 C1.8871875 0.0309375 1.8871875 0.0309375 3.8125 0.0625 C3.4825 1.0525 3.1525 2.0425 2.8125 3.0625 C2.12542969 3.06507812 1.43835938 3.06765625 0.73046875 3.0703125 C-2.01973052 3.1883468 -4.51467875 3.39429469 -7.1875 4.0625 C-9.12897258 6.77842342 -9.12897258 6.77842342 -10.1875 10.0625 C-11.486875 11.3309375 -11.486875 11.3309375 -12.8125 12.625 C-15.34572129 15.22488501 -15.88336869 16.51430134 -16.1875 20.0625 C-12.8875 20.0625 -9.5875 20.0625 -6.1875 20.0625 C-6.1875 20.7225 -6.1875 21.3825 -6.1875 22.0625 C-5.1975 22.3925 -4.2075 22.7225 -3.1875 23.0625 C-3.1875 23.7225 -3.1875 24.3825 -3.1875 25.0625 C-2.5275 25.0625 -1.8675 25.0625 -1.1875 25.0625 C0.4375 26.1875 0.4375 26.1875 1.8125 28.0625 C2.125 31.125 2.125 31.125 1.8125 34.0625 C-0.1875 36.0625 -0.1875 36.0625 -2.1328125 36.2578125 C-4.15104167 36.19270833 -6.16927083 36.12760417 -8.1875 36.0625 C-9.1875 33.0625 -9.1875 33.0625 -8.1875 29.0625 C-11.1575 28.7325 -14.1275 28.4025 -17.1875 28.0625 C-16.8265625 28.61679688 -16.465625 29.17109375 -16.09375 29.7421875 C-15.6296875 30.46664062 -15.165625 31.19109375 -14.6875 31.9375 C-14.2234375 32.65679687 -13.759375 33.37609375 -13.28125 34.1171875 C-12.1875 36.0625 -12.1875 36.0625 -12.1875 38.0625 C-12.81140625 38.42085937 -13.4353125 38.77921875 -14.078125 39.1484375 C-17.28194382 42.05560643 -17.38673223 45.58779092 -17.9375 49.6875 C-18.06036377 50.5225708 -18.18322754 51.3576416 -18.30981445 52.21801758 C-19.43114347 60.50960098 -19.47608111 68.71502411 -19.1875 77.0625 C-14.91690537 77.8701011 -10.84530161 78.22476596 -6.5 78.25 C-5.38238281 78.26417969 -4.26476562 78.27835937 -3.11328125 78.29296875 C0.00457979 78.28663674 0.00457979 78.28663674 2.8125 76.0625 C1.56326847 81.74082514 -0.05121542 84.92621542 -4.1875 89.0625 C-8.15068065 91.35697301 -11.66558029 91.52235624 -16.1875 91.0625 C-20.97430886 89.35229573 -24.48761484 87.48405106 -27.1875 83.0625 C-33.30792044 63.44729888 -26.123766 34.69973059 -19.1875 16.0625 C-17.28515625 12.56640625 -17.28515625 12.56640625 -15.25 9.625 C-14.58097656 8.63628906 -13.91195312 7.64757813 -13.22265625 6.62890625 C-9.48994408 1.92182008 -6.0457956 -0.0991114 0 0 Z " fill="#3F0605" transform="translate(49.1875,44.9375)"/>
<path d="M0 0 C2.475 0.495 2.475 0.495 5 1 C5 1.66 5 2.32 5 3 C8.3 3.66 11.6 4.32 15 5 C15 11.27 15 17.54 15 24 C14.67 24 14.34 24 14 24 C13.505 18.555 13.505 18.555 13 13 C12.01 13.66 11.02 14.32 10 15 C10.33 15.99 10.66 16.98 11 18 C11.09225211 19.49774018 11.1300019 20.99942974 11.125 22.5 C11.12886719 23.66015625 11.12886719 23.66015625 11.1328125 24.84375 C11 27 11 27 10 30 C12.31 30.33 14.62 30.66 17 31 C17 31.33 17 31.66 17 32 C16.02160156 32.14695312 16.02160156 32.14695312 15.0234375 32.296875 C9.3059705 33.27508469 5.84254826 34.73654356 1 38 C-3.30815071 39.33241774 -6.36689959 39.19314928 -10.6875 37.875 C-14.14576761 35.91749003 -16.4667858 34.05475831 -19 31 C-19.33 29.68 -19.66 28.36 -20 27 C-16.7 27 -13.4 27 -10 27 C-10.33 29.31 -10.66 31.62 -11 34 C-8.36 34 -5.72 34 -3 34 C-2.01 30.535 -2.01 30.535 -1 27 C-1.99 26.67 -2.98 26.34 -4 26 C-4 25.34 -4 24.68 -4 24 C-4.66 24 -5.32 24 -6 24 C-7.625 22.625 -7.625 22.625 -9 21 C-9 20.34 -9 19.68 -9 19 C-12.63 19.33 -16.26 19.66 -20 20 C-19.61846043 14.5312661 -17.88597773 12.70093117 -14 9 C-12.93988057 7.03120677 -11.92529151 5.03564133 -11 3 C-10 2 -10 2 -7.71484375 1.90234375 C-6.34005859 1.91974609 -6.34005859 1.91974609 -4.9375 1.9375 C-4.01839844 1.94652344 -3.09929688 1.95554688 -2.15234375 1.96484375 C-1.44207031 1.97644531 -0.73179688 1.98804688 0 2 C0 1.34 0 0.68 0 0 Z " fill="#940A08" transform="translate(52,46)"/>
<path d="M0 0 C0.03738281 0.83144531 0.07476562 1.66289063 0.11328125 2.51953125 C0.21189453 4.14955078 0.21189453 4.14955078 0.3125 5.8125 C0.37050781 6.89144531 0.42851563 7.97039062 0.48828125 9.08203125 C1.0549775 12.31349764 1.48407949 13.03174221 4 15 C5.90699025 15.46747413 5.90699025 15.46747413 8.01245117 15.43237305 C8.81305466 15.45216721 9.61365814 15.47196136 10.43852234 15.49235535 C11.72772331 15.50194023 11.72772331 15.50194023 13.04296875 15.51171875 C13.9265657 15.52966995 14.81016266 15.54762115 15.72053528 15.56611633 C18.5428083 15.62029996 21.36491144 15.65414061 24.1875 15.6875 C26.10093514 15.72066599 28.01434784 15.75515498 29.92773438 15.79101562 C34.61836715 15.87603099 39.30894884 15.94280362 44 16 C44 17.32 44 18.64 44 20 C42.906875 20.0825 41.81375 20.165 40.6875 20.25 C37.08431657 20.64526228 37.08431657 20.64526228 35.34375 22.5625 C33.53641928 25.84091387 33.18979985 29.08776844 32.8125 32.75 C32.73064453 33.44738281 32.64878906 34.14476562 32.56445312 34.86328125 C32.36522867 36.57426776 32.18110071 38.28700037 32 40 C28.20969171 40.36979721 24.41767667 40.71791332 20.625 41.0625 C19.56410156 41.16626953 18.50320312 41.27003906 17.41015625 41.37695312 C0.78395636 42.85597091 0.78395636 42.85597091 -5 39 C-5 38.34 -5 37.68 -5 37 C-4.25234375 36.98582031 -3.5046875 36.97164062 -2.734375 36.95703125 C3.4520796 36.74403789 3.4520796 36.74403789 8.75 33.875 C10.43535259 29.99868904 10.31252768 28.01050123 9 24 C5.02600035 20.49909555 1.03460647 19.20830555 -4 18 C-3.98839844 17.18015625 -3.97679687 16.3603125 -3.96484375 15.515625 C-3.95130859 13.89914063 -3.95130859 13.89914063 -3.9375 12.25 C-3.92589844 11.18265625 -3.91429687 10.1153125 -3.90234375 9.015625 C-3.98489913 6.46631499 -4.25382442 4.42066409 -5 2 C-1.125 0 -1.125 0 0 0 Z " fill="#AA0E0B" transform="translate(66,58)"/>
<path d="M0 0 C2.40648402 2.40648402 2.67950218 3.9493347 3.5078125 7.2265625 C3.77207031 8.2578125 4.03632813 9.2890625 4.30859375 10.3515625 C4.57800781 11.43179688 4.84742188 12.51203125 5.125 13.625 C5.40214844 14.71296875 5.67929688 15.8009375 5.96484375 16.921875 C6.6494469 19.61307358 7.32754339 22.30574535 8 25 C18.04821399 25.16489368 18.04821399 25.16489368 28 24 C28 23.34 28 22.68 28 22 C29.31129922 20.64499081 30.64691687 19.31328657 32 18 C32.66 17.01 33.32 16.02 34 15 C34.35637908 21.44122183 34.40388144 27.32686427 31 33 C27.43815984 36.91218509 24.01124517 38.84820791 18.6875 39.25 C13.63539404 38.90748434 10.48606992 37.59745188 7.01953125 33.87109375 C4.62635822 30.46880714 3.26595049 27.14530258 1.875 23.25 C1.61420654 22.54351318 1.35341309 21.83702637 1.0847168 21.10913086 C-0.29313837 17.29167958 -1.42199943 13.55725508 -2.1875 9.5625 C-2.455625 8.386875 -2.72375 7.21125 -3 6 C-3.99 5.67 -4.98 5.34 -6 5 C-4.06745228 2.9754262 -2.36841312 1.57894208 0 0 Z " fill="#170E0B" transform="translate(125,97)"/>
<path d="M0 0 C3 1 3 1 3.95703125 2.671875 C4.23933594 3.35765625 4.52164063 4.0434375 4.8125 4.75 C6.236627 7.88086287 7.3982524 9.52515161 10.25 11.4375 C13 14 13 14 13.48828125 15.98828125 C13.67224425 21.59431147 12.34251346 26.91739052 10 32 C9.34 32.66 8.68 33.32 8 34 C5.1796875 33.9765625 5.1796875 33.9765625 1.875 33.625 C0.77929688 33.51414063 -0.31640625 33.40328125 -1.4453125 33.2890625 C-2.28835937 33.19367188 -3.13140625 33.09828125 -4 33 C-4.2237055 25.74199931 -3.99886411 18.64066068 -3.125 11.4375 C-3.04652832 10.75945312 -2.96805664 10.08140625 -2.88720703 9.3828125 C-2.43231063 5.89731072 -1.83094364 3.02336492 0 0 Z " fill="#850705" transform="translate(41,90)"/>
<path d="M0 0 C3.3 0.66 6.6 1.32 10 2 C9.34 3.32 8.68 4.64 8 6 C7.5832448 9.04211431 7.5832448 9.04211431 8 12 C8.495 12.45375 8.99 12.9075 9.5 13.375 C11.39941477 15.43269933 11.17483441 16.25910738 11.125 19 C11.08632812 19.680625 11.04765625 20.36125 11.0078125 21.0625 C10.89575878 23.22069385 10.89575878 23.22069385 12 26 C12.66 25.67 13.32 25.34 14 25 C14.33951619 26.56116819 14.67132544 28.12401338 15 29.6875 C15.185625 30.55761719 15.37125 31.42773438 15.5625 32.32421875 C15.98972047 34.93712964 16.07616201 37.35813038 16 40 C13.36 40 10.72 40 8 40 C5.23049233 32.10690315 3.0998919 24.09044645 1 16 C-1.26811444 15.84602186 -1.26811444 15.84602186 -4 17.5625 C-4.99 18.036875 -5.98 18.51125 -7 19 C-7.66 18.67 -8.32 18.34 -9 18 C-9 17.34 -9 16.68 -9 16 C-11.97 15.505 -11.97 15.505 -15 15 C-14.67 14.34 -14.34 13.68 -14 13 C-10.85554549 12.15014743 -8.29227921 12 -5 12 C-3.68 11.67 -2.36 11.34 -1 11 C-0.67 7.37 -0.34 3.74 0 0 Z " fill="#6C0201" transform="translate(125,83)"/>
<path d="M0 0 C2.57263582 1.11432437 4.65110499 2.43406999 7 4 C6.67 4.66 6.34 5.32 6 6 C5.01 5.67 4.02 5.34 3 5 C3 4.34 3 3.68 3 3 C-0.96 3 -4.92 3 -9 3 C-9 3.99 -9 4.98 -9 6 C-10.65 6 -12.3 6 -14 6 C-13.938125 7.03125 -13.87625 8.0625 -13.8125 9.125 C-14.01135595 13.23468973 -14.94467803 15.48882496 -17 19 C-15.88625 18.95875 -14.7725 18.9175 -13.625 18.875 C-10 19 -10 19 -8 21 C-7.63976378 23.80984248 -7.61667398 25.38241919 -9.125 27.8125 C-11.77535957 29.49106106 -13.93246424 29.20450238 -17 29 C-17.33 29.66 -17.66 30.32 -18 31 C-19.65 31 -21.3 31 -23 31 C-22.34 31.66 -21.68 32.32 -21 33 C-22.65 32.67 -24.3 32.34 -26 32 C-25.505 30.515 -25.505 30.515 -25 29 C-38.2 29 -51.4 29 -65 29 C-65 28.67 -65 28.34 -65 28 C-63.7632251 27.97494385 -62.5264502 27.9498877 -61.25219727 27.92407227 C-56.68063287 27.83017747 -52.10922682 27.72991371 -47.5378418 27.62768555 C-45.55610854 27.58426856 -43.57433622 27.54259863 -41.5925293 27.50268555 C-38.7503683 27.44514617 -35.90840517 27.38140555 -33.06640625 27.31640625 C-31.72891075 27.29133751 -31.72891075 27.29133751 -30.36439514 27.26576233 C-26.36051605 27.563413 -26.36051605 27.563413 -23 26 C-22.84344973 24.51361008 -22.74933057 23.02050873 -22.68359375 21.52734375 C-22.62075195 20.17866211 -22.62075195 20.17866211 -22.55664062 18.80273438 C-22.51732422 17.85720703 -22.47800781 16.91167969 -22.4375 15.9375 C-22.37272461 14.5134082 -22.37272461 14.5134082 -22.30664062 13.06054688 C-22.20020868 10.70721824 -22.09956846 8.35362901 -22 6 C-18.7 5.34 -15.4 4.68 -12 4 C-12 3.34 -12 2.68 -12 2 C-8.28226977 -0.47848682 -4.31208336 -0.6880133 0 0 Z " fill="#88110E" transform="translate(135,45)"/>
<path d="M0 0 C0.33 0 0.66 0 1 0 C1.07476563 0.67546875 1.14953125 1.3509375 1.2265625 2.046875 C2.04850072 7.97563406 2.04850072 7.97563406 5.75 12.5 C11.19090729 15.01118798 15.66437786 16.27798198 21.6875 16.25 C23.36392578 16.25773437 23.36392578 16.25773437 25.07421875 16.265625 C28.19106235 16.21726785 28.19106235 16.21726785 31 14 C29.75076847 19.67832514 28.13628458 22.86371542 24 27 C20.03681935 29.29447301 16.52191971 29.45985624 12 29 C7.2348136 27.29752088 3.64900463 25.43554263 1 21 C-0.83106827 13.93730811 -1.40286788 7.15462619 0 0 Z " fill="#100A07" transform="translate(21,107)"/>
<path d="M0 0 C3.96 0 7.92 0 12 0 C11.67 0.99 11.34 1.98 11 3 C12.65 3 14.3 3 16 3 C15.34 8.61 14.68 14.22 14 20 C10.20913718 20.36578501 6.41779967 20.71790214 2.625 21.0625 C1.56410156 21.16626953 0.50320312 21.27003906 -0.58984375 21.37695312 C-17.21604364 22.85597091 -17.21604364 22.85597091 -23 19 C-23 18.34 -23 17.68 -23 17 C-20.03 17 -17.06 17 -14 17 C-14.66 17.33 -15.32 17.66 -16 18 C-16 18.66 -16 19.32 -16 20 C-11.67035982 18.98975062 -7.94718023 18.03725431 -4 16 C-1.6756398 15.30269194 0.65673706 14.63087848 3 14 C3 10.37 3 6.74 3 3 C2.34 3 1.68 3 1 3 C0.67 2.01 0.34 1.02 0 0 Z " fill="#620202" transform="translate(84,78)"/>
<path d="M0 0 C0.98226059 -0.0033284 1.96452118 -0.0066568 2.97654724 -0.01008606 C5.0484063 -0.0151385 7.12027346 -0.01749491 9.19213867 -0.01733398 C12.36325392 -0.01952583 15.53402413 -0.0377141 18.70507812 -0.05664062 C20.7200509 -0.0595738 22.73502531 -0.0615591 24.75 -0.0625 C26.17198448 -0.07327827 26.17198448 -0.07327827 27.62269592 -0.08427429 C28.50718918 -0.08119766 29.39168243 -0.07812103 30.30297852 -0.07495117 C31.46616356 -0.0770887 31.46616356 -0.0770887 32.65284729 -0.07926941 C35.07486581 0.19850695 36.70621939 0.96309432 38.80859375 2.16796875 C37.81859375 2.16796875 36.82859375 2.16796875 35.80859375 2.16796875 C35.80859375 2.82796875 35.80859375 3.48796875 35.80859375 4.16796875 C34.5467627 4.1930249 33.28493164 4.21808105 31.98486328 4.24389648 C27.31450806 4.33788981 22.64430438 4.43813006 17.97412109 4.5402832 C15.95071959 4.5836627 13.92728076 4.62533553 11.90380859 4.6652832 C8.99955991 4.72291283 6.09549964 4.78662815 3.19140625 4.8515625 C2.28303009 4.86827499 1.37465393 4.88498749 0.43875122 4.90220642 C-0.4019693 4.92215164 -1.24268982 4.94209686 -2.10888672 4.96264648 C-2.85057098 4.97819077 -3.59225525 4.99373505 -4.35641479 5.00975037 C-6.28814729 5.06270371 -6.28814729 5.06270371 -8.19140625 6.16796875 C-8.19140625 11.44796875 -8.19140625 16.72796875 -8.19140625 22.16796875 C5.66859375 22.49796875 19.52859375 22.82796875 33.80859375 23.16796875 C33.80859375 23.49796875 33.80859375 23.82796875 33.80859375 24.16796875 C27.70304665 24.19261388 21.59752824 24.21080246 15.49194336 24.22290039 C13.41316219 24.22794163 11.33438459 24.23477449 9.25561523 24.2434082 C6.27456789 24.25548297 3.29356726 24.26119899 0.3125 24.265625 C-1.09061684 24.27336693 -1.09061684 24.27336693 -2.52207947 24.28126526 C-3.81330467 24.28137856 -3.81330467 24.28137856 -5.13061523 24.28149414 C-5.892285 24.28371475 -6.65395477 24.28593536 -7.43870544 24.28822327 C-9.19140625 24.16796875 -9.19140625 24.16796875 -10.19140625 23.16796875 C-10.27826228 21.6062413 -10.29842844 20.04067531 -10.2890625 18.4765625 C-10.28583984 17.53232422 -10.28261719 16.58808594 -10.27929688 15.61523438 C-10.27091797 14.62201172 -10.26253906 13.62878906 -10.25390625 12.60546875 C-10.24939453 11.60837891 -10.24488281 10.61128906 -10.24023438 9.58398438 C-10.22840632 7.11192026 -10.21192474 4.63997357 -10.19140625 2.16796875 C-11.84140625 2.16796875 -13.49140625 2.16796875 -15.19140625 2.16796875 C-15.19140625 1.83796875 -15.19140625 1.50796875 -15.19140625 1.16796875 C-10.17060669 -0.15121656 -5.1517583 0.00606047 0 0 Z " fill="#1A120E" transform="translate(77.19140625,48.83203125)"/>
<path d="M0 0 C3.5985297 0.57833513 5.62270249 1.36221367 8.5 3.5625 C10.2470127 7.05652539 9.35687311 10.84938318 8.5 14.5625 C6.9375 16.625 6.9375 16.625 4.5 17.5625 C-0.48906907 18.19603258 -2.37076758 18.36237296 -6.5 15.4375 C-8.5 12.5625 -8.5 12.5625 -9.125 9.625 C-8.00912518 4.15721336 -5.61170024 0.9018804 0 0 Z " fill="#151410" transform="translate(111.5,77.4375)"/>
<path d="M0 0 C3.74879143 2.03738665 4.77169934 3.31509801 6.125 7.375 C6 11 6 11 4.0625 14.4375 C0.68132191 17.26664901 -0.78822086 17.87181493 -5.0625 17.515625 C-8.55075925 16.58729794 -10.00823896 14.92539902 -12 12 C-12.625 8.5 -12.625 8.5 -12 5 C-8.57935012 0.12816532 -5.85570965 -0.94109619 0 0 Z " fill="#13100C" transform="translate(71,78)"/>
<path d="M0 0 C1.32 0.66 2.64 1.32 4 2 C3.505 2.53625 3.01 3.0725 2.5 3.625 C0.59736187 6.63751037 0.70147311 8.492309 1 12 C1.33 12.99 1.66 13.98 2 15 C4.10584438 15.80563638 4.10584438 15.80563638 6.5625 16.1875 C7.80193359 16.42533203 7.80193359 16.42533203 9.06640625 16.66796875 C10.02353516 16.83232422 10.02353516 16.83232422 11 17 C10.01 17.66 9.02 18.32 8 19 C10.475 19.99 10.475 19.99 13 21 C13 21.66 13 22.32 13 23 C13.99 23.33 14.98 23.66 16 24 C12.97455666 26.01696222 12.38932618 26.25811096 9 26.1875 C8.319375 26.18105469 7.63875 26.17460938 6.9375 26.16796875 C5 26 5 26 2 25 C1.34 24.01 0.68 23.02 0 22 C-3.06556598 21.26656572 -3.06556598 21.26656572 -6 21 C-5.77084658 18.43408475 -5.51756726 15.87445648 -5.25 13.3125 C-5.188125 12.59126953 -5.12625 11.87003906 -5.0625 11.12695312 C-4.53333353 6.29830909 -3.49745813 3.60408795 0 0 Z " fill="#400302" transform="translate(103,78)"/>
<path d="M0 0 C0.66 0.66 1.32 1.32 2 2 C4.44012949 2.24287489 4.44012949 2.24287489 7.125 2.125 C8.03507812 2.10695313 8.94515625 2.08890625 9.8828125 2.0703125 C10.58148438 2.04710938 11.28015625 2.02390625 12 2 C12 2.66 12 3.32 12 4 C12.99 4.33 13.98 4.66 15 5 C15 5.66 15 6.32 15 7 C15.66 7 16.32 7 17 7 C18.625 8.125 18.625 8.125 20 10 C20.3125 13.0625 20.3125 13.0625 20 16 C18 18 18 18 16.0546875 18.1953125 C14.03645833 18.13020833 12.01822917 18.06510417 10 18 C9 15 9 15 10 11 C6.7 10.67 3.4 10.34 0 10 C0 6.7 0 3.4 0 0 Z " fill="#640705" transform="translate(31,63)"/>
<path d="M0 0 C4.95 0.99 4.95 0.99 10 2 C9.34 3.32 8.68 4.64 8 6 C7.5832448 9.04211431 7.5832448 9.04211431 8 12 C8.7425 12.680625 8.7425 12.680625 9.5 13.375 C11.39941477 15.43269933 11.17483441 16.25910738 11.125 19 C11.06699219 20.0209375 11.06699219 20.0209375 11.0078125 21.0625 C10.89575878 23.22069385 10.89575878 23.22069385 12 26 C12.66 25.67 13.32 25.34 14 25 C14.33951619 26.56116819 14.67132544 28.12401338 15 29.6875 C15.185625 30.55761719 15.37125 31.42773438 15.5625 32.32421875 C15.98972047 34.93712964 16.07616201 37.35813038 16 40 C14.68 40 13.36 40 12 40 C11.82871582 39.33991943 11.65743164 38.67983887 11.48095703 37.99975586 C10.69651386 34.97877571 9.91076738 31.95813598 9.125 28.9375 C8.72087891 27.37999023 8.72087891 27.37999023 8.30859375 25.79101562 C7.54533615 22.85898947 6.77339836 19.92936434 6 17 C5.81147461 16.26152832 5.62294922 15.52305664 5.42871094 14.76220703 C4.64944113 11.82126413 4.19349681 10.19349681 2 8 C1.01 8.495 1.01 8.495 0 9 C0 6.03 0 3.06 0 0 Z " fill="#830302" transform="translate(125,83)"/>
<path d="M0 0 C1.134375 0.020625 2.26875 0.04125 3.4375 0.0625 C2.75 2.5 2.75 2.5 1.4375 5.0625 C-1.125 5.75 -1.125 5.75 -3.5625 6.0625 C-3.8925 6.7225 -4.2225 7.3825 -4.5625 8.0625 C-1.9225 8.0625 0.7175 8.0625 3.4375 8.0625 C3.4375 8.3925 3.4375 8.7225 3.4375 9.0625 C1.7875 9.3925 0.1375 9.7225 -1.5625 10.0625 C-1.5625 10.990625 -1.5625 11.91875 -1.5625 12.875 C-1.5625 14.9375 -1.5625 17 -1.5625 19.0625 C-1.8925 18.4025 -2.2225 17.7425 -2.5625 17.0625 C-6.1925 17.3925 -9.8225 17.7225 -13.5625 18.0625 C-13.18096043 12.5937661 -11.44847773 10.76343117 -7.5625 7.0625 C-6.50238057 5.09370677 -5.48779151 3.09814133 -4.5625 1.0625 C-3.5625 0.0625 -3.5625 0.0625 0 0 Z " fill="#820906" transform="translate(45.5625,47.9375)"/>
<path d="M0 0 C0.33 0.99 0.66 1.98 1 3 C-9.23 3 -19.46 3 -30 3 C-27 -1 -27 -1 -24.24609375 -1.73828125 C-7.0683985 -3.12324585 -7.0683985 -3.12324585 0 0 Z " fill="#0A0806" transform="translate(104,100)"/>
<path d="M0 0 C2.40648402 2.40648402 2.67950218 3.9493347 3.5078125 7.2265625 C3.77207031 8.2578125 4.03632813 9.2890625 4.30859375 10.3515625 C4.57800781 11.43179688 4.84742188 12.51203125 5.125 13.625 C5.40214844 14.71296875 5.67929688 15.8009375 5.96484375 16.921875 C6.64943152 19.61301315 7.32551735 22.30631143 8 25 C11.63 25.33 15.26 25.66 19 26 C19 26.33 19 26.66 19 27 C16.89695523 27.1080023 14.79233091 27.18558987 12.6875 27.25 C10.92986328 27.31960937 10.92986328 27.31960937 9.13671875 27.390625 C6 27 6 27 4.2734375 25.5546875 C2.39775475 21.79181475 1.17626549 17.8859389 -0.0625 13.875 C-0.56864292 12.24565328 -1.08012536 10.61795291 -1.59765625 8.9921875 C-1.93035522 7.91493408 -1.93035522 7.91493408 -2.26977539 6.81591797 C-2.945213 4.79329587 -2.945213 4.79329587 -5 3 C-3.35 2.01 -1.7 1.02 0 0 Z " fill="#470907" transform="translate(125,97)"/>
<path d="M0 0 C1.6415049 3.2830098 0.51888624 6.42545033 0 10 C1.32 10.33 2.64 10.66 4 11 C4.2475 10.360625 4.495 9.72125 4.75 9.0625 C6 7 6 7 8.125 6.25 C8.74375 6.1675 9.3625 6.085 10 6 C11 9.875 11 9.875 11 11 C11.66 11 12.32 11 13 11 C13.66 9.68 14.32 8.36 15 7 C14.65447612 9.55687669 14.24912987 11.57501375 12.9375 13.8125 C9.75539793 15.76282063 6.55009536 15.72521403 3 15 C0 12.9375 0 12.9375 -2 10 C-2.53603554 5.55856266 -2.50031654 3.75047482 0 0 Z " fill="#0A0503" transform="translate(61,80)"/>
<path d="M0 0 C1.67293936 0.30027117 3.33985384 0.63557767 5 1 C5.66 1 6.32 1 7 1 C7.99 1 8.98 1 10 1 C9.8864371 2.64666203 9.75882619 4.29236082 9.625 5.9375 C9.55539063 6.85402344 9.48578125 7.77054687 9.4140625 8.71484375 C9.27742188 9.46894531 9.14078125 10.22304687 9 11 C6.35541621 12.32229189 4.32238699 12.09677194 1.375 12.0625 C0.37210937 12.05347656 -0.63078125 12.04445313 -1.6640625 12.03515625 C-2.43492188 12.02355469 -3.20578125 12.01195313 -4 12 C-4 11.67 -4 11.34 -4 11 C1.445 10.505 1.445 10.505 7 10 C6.34 9.01 5.68 8.02 5 7 C1.91634129 6.7497843 1.91634129 6.7497843 -1 7 C-1.04254356 5.00045254 -1.04080783 2.99958364 -1 1 C-0.67 0.67 -0.34 0.34 0 0 Z " fill="#680705" transform="translate(88,85)"/>
<path d="M0 0 C3.96 0 7.92 0 12 0 C11.67 0.99 11.34 1.98 11 3 C12.65 3 14.3 3 16 3 C14.60667426 6.36720387 13.0210714 7.9859524 10 10 C9.34 9.34 8.68 8.68 8 8 C5.93125966 7.3574765 5.93125966 7.3574765 4 7 C3.67 5.68 3.34 4.36 3 3 C2.34 3 1.68 3 1 3 C0.67 2.01 0.34 1.02 0 0 Z " fill="#8E0906" transform="translate(84,78)"/>
<path d="M0 0 C2.64 0 5.28 0 8 0 C7.67 0.99 7.34 1.98 7 3 C7.66 3.33 8.32 3.66 9 4 C6.61426621 5.89213369 4.92824652 7.02391783 2 8 C2 9.65 2 11.3 2 13 C1.67 13 1.34 13 1 13 C0.67 11.02 0.34 9.04 0 7 C-1.65 7.66 -3.3 8.32 -5 9 C-5 7.02 -5 5.04 -5 3 C-3.35 3 -1.7 3 0 3 C0 2.01 0 1.02 0 0 Z " fill="#AA0806" transform="translate(126,48)"/>
<path d="M0 0 C4.455 0.99 4.455 0.99 9 2 C9 8.27 9 14.54 9 21 C8.67 21 8.34 21 8 21 C7.67 17.37 7.34 13.74 7 10 C5.35 10 3.7 10 2 10 C1.67 9.67 1.34 9.34 1 9 C1.28730055 6.66055264 1.61936779 4.3260857 2 2 C1.34 2 0.68 2 0 2 C0 1.34 0 0.68 0 0 Z " fill="#820B08" transform="translate(58,49)"/>
<path d="M0 0 C1.8871875 0.0309375 1.8871875 0.0309375 3.8125 0.0625 C3.4825 1.0525 3.1525 2.0425 2.8125 3.0625 C2.12542969 3.06507812 1.43835938 3.06765625 0.73046875 3.0703125 C-2.01973052 3.1883468 -4.51467875 3.39429469 -7.1875 4.0625 C-9.12897258 6.77842342 -9.12897258 6.77842342 -10.1875 10.0625 C-12.625 12.6875 -12.625 12.6875 -15.1875 15.0625 C-15.950625 15.825625 -16.71375 16.58875 -17.5 17.375 C-18.056875 17.931875 -18.61375 18.48875 -19.1875 19.0625 C-18.52882268 15.3475599 -16.88594299 12.66497451 -14.875 9.5 C-13.98361328 8.07494141 -13.98361328 8.07494141 -13.07421875 6.62109375 C-9.52981461 1.81450015 -5.97084813 -0.09788276 0 0 Z " fill="#360604" transform="translate(49.1875,44.9375)"/>
<path d="M0 0 C2.5 0.25 2.5 0.25 4.5 2.25 C4.75 4.75 4.75 4.75 4.5 7.25 C2.5 9.25 2.5 9.25 0 9.5 C-2.5 9.25 -2.5 9.25 -4.5 7.25 C-4.75 4.75 -4.75 4.75 -4.5 2.25 C-2.5 0.25 -2.5 0.25 0 0 Z " fill="#544947" transform="translate(132.5,73.75)"/>
<path d="M0 0 C2.375 0.6875 2.375 0.6875 3.375 1.6875 C3.5625 4.125 3.5625 4.125 3.375 6.6875 C1.375 8.6875 1.375 8.6875 -1.125 8.9375 C-3.625 8.6875 -3.625 8.6875 -5.625 6.6875 C-5.9375 4.1875 -5.9375 4.1875 -5.625 1.6875 C-2.625 -0.3125 -2.625 -0.3125 0 0 Z " fill="#41312C" transform="translate(133.625,54.3125)"/>
<path d="M0 0 C3 0.125 3 0.125 4 1.125 C4.47058824 6.53676471 4.47058824 6.53676471 2.5 9 C1.7575 9.556875 1.7575 9.556875 1 10.125 C-2.875 8.25 -2.875 8.25 -4 7.125 C-4.125 4.125 -4.125 4.125 -4 1.125 C-3 0.125 -3 0.125 0 0 Z " fill="#2F241F" transform="translate(47,56.875)"/>
<path d="M0 0 C0.66 0.33 1.32 0.66 2 1 C1.01 1.7734375 1.01 1.7734375 0 2.5625 C-2.65637543 5.79995755 -2.31342132 7.92552281 -2 12 C1.39313374 14.0880823 4.04599009 14.50476722 8 14 C9.83333333 12.25 9.83333333 12.25 11 10 C11.66 9.01 12.32 8.02 13 7 C12.52039967 13.35470441 12.52039967 13.35470441 10.4375 15.9375 C6.92560029 17.46832808 3.71479696 17.77973956 0 17 C-3.407849 14.58610696 -4.75297335 13.16102524 -5.625 9.0625 C-4.76756645 4.86107563 -2.93813421 3.08504092 0 0 Z " fill="#100403" transform="translate(108,78)"/>
<path d="M0 0 C1.64284201 2.95711562 2.6442194 5.62008426 3 9 C2.34 9.66 1.68 10.32 1 11 C0.67 10.34 0.34 9.68 0 9 C-0.99 9 -1.98 9 -3 9 C-3 8.34 -3 7.68 -3 7 C-3.99 6.67 -4.98 6.34 -6 6 C-6 5.34 -6 4.68 -6 4 C-6.66 3.67 -7.32 3.34 -8 3 C-5.53387212 -0.1151089 -3.89156016 -0.31553191 0 0 Z " fill="#15120E" transform="translate(115,78)"/>
<path d="M0 0 C0.99 0.7425 1.98 1.485 3 2.25 C6.81128218 4.98570561 10.76444169 6.9936829 15 9 C15 9.66 15 10.32 15 11 C13.741875 11.020625 12.48375 11.04125 11.1875 11.0625 C10.47980469 11.07410156 9.77210937 11.08570312 9.04296875 11.09765625 C5.64432772 10.93519731 4.18511498 10.19040398 1.8125 7.75 C-0.14386351 4.78172433 -0.39600661 3.46505783 0 0 Z " fill="#3E1613" transform="translate(101,93)"/>
<path d="M0 0 C1.625 1.125 1.625 1.125 3 3 C3.25 6.125 3.25 6.125 3 9 C2 10 2 10 -1 10.125 C-4 10 -4 10 -5 9 C-5.4664311 3.6360424 -5.4664311 3.6360424 -3.625 1.125 C-2 0 -2 0 0 0 Z " fill="#2E231E" transform="translate(48,70)"/>
<path d="M0 0 C2.45665202 4.37924925 3.41549122 8.03167534 4 13 C4.33 13.33 4.66 13.66 5 14 C5.42339421 15.59207821 5.78966289 17.19957573 6.125 18.8125 C6.31320313 19.68519531 6.50140625 20.55789062 6.6953125 21.45703125 C6.99875868 23.98963976 6.79414358 25.60079158 6 28 C3.23049233 20.10690315 1.0998919 12.09044645 -1 4 C-2.32 3.67 -3.64 3.34 -5 3 C-2.25 0 -2.25 0 0 0 Z " fill="#590202" transform="translate(127,95)"/>
<path d="M0 0 C1.134375 0.020625 2.26875 0.04125 3.4375 0.0625 C4.5625 4.8125 4.5625 4.8125 3.4375 7.0625 C0.0625 7.1875 0.0625 7.1875 -3.5625 7.0625 C-4.2225 6.4025 -4.8825 5.7425 -5.5625 5.0625 C-4.90400312 0.71642062 -4.57278902 0.08022437 0 0 Z " fill="#2D241F" transform="translate(54.5625,64.9375)"/>
<path d="M0 0 C2.31 0 4.62 0 7 0 C7 0.66 7 1.32 7 2 C7.66 2 8.32 2 9 2 C8.125 5.875 8.125 5.875 7 7 C4.66702567 7.04092937 2.33294775 7.04241723 0 7 C0 4.69 0 2.38 0 0 Z " fill="#2C2722" transform="translate(36,65)"/>
<path d="M0 0 C0 3 0 3 -2.5 5.6875 C-3.325 6.450625 -4.15 7.21375 -5 8 C-5.99 7.67 -6.98 7.34 -8 7 C-8 6.34 -8 5.68 -8 5 C-10.97 4.505 -10.97 4.505 -14 4 C-13.67 3.34 -13.34 2.68 -13 2 C-9.85554549 1.15014743 -7.29227921 1 -4 1 C-2.65835921 0.7018576 -1.32148827 0.37756808 0 0 Z " fill="#990504" transform="translate(124,94)"/>
<path d="M0 0 C2.31 0.33 4.62 0.66 7 1 C7.04254356 2.99954746 7.04080783 5.00041636 7 7 C6 8 6 8 3.5 8.125 C1 8 1 8 0 7 C-0.04092937 4.66702567 -0.04241723 2.33294775 0 0 Z " fill="#734942" transform="translate(140,64)"/>
<path d="M0 0 C2.57263582 1.11432437 4.65110499 2.43406999 7 4 C6.67 4.66 6.34 5.32 6 6 C5.01 5.67 4.02 5.34 3 5 C3 4.34 3 3.68 3 3 C-6.04235055 3.65091677 -6.04235055 3.65091677 -15 5 C-14.01 4.67 -13.02 4.34 -12 4 C-12 3.34 -12 2.68 -12 2 C-8.28226977 -0.47848682 -4.31208336 -0.6880133 0 0 Z " fill="#3E1916" transform="translate(135,45)"/>
<path d="M0 0 C4.29 0.99 8.58 1.98 13 3 C12.01 3.66 11.02 4.32 10 5 C12.475 5.99 12.475 5.99 15 7 C15 7.66 15 8.32 15 9 C15.99 9.33 16.98 9.66 18 10 C15 11 15 11 12.44140625 9.9609375 C11.49136719 9.43757813 10.54132813 8.91421875 9.5625 8.375 C8.61503906 7.86710937 7.66757813 7.35921875 6.69140625 6.8359375 C4 5 4 5 0 0 Z " fill="#6B0302" transform="translate(101,92)"/>
<path d="M0 0 C0.66 1.32 1.32 2.64 2 4 C-1.42232972 5.14077657 -4.08673217 5.09815117 -7.6875 5.0625 C-9.45673828 5.04896484 -9.45673828 5.04896484 -11.26171875 5.03515625 C-12.16535156 5.02355469 -13.06898437 5.01195313 -14 5 C-13.67 4.34 -13.34 3.68 -13 3 C-10.83532539 2.37330801 -8.64135476 1.84572626 -6.4375 1.375 C-4.64119141 0.98441406 -4.64119141 0.98441406 -2.80859375 0.5859375 C-1.41833984 0.29589844 -1.41833984 0.29589844 0 0 Z " fill="#850402" transform="translate(93,91)"/>
<path d="M0 0 C2.91180862 4.36771293 3.12438648 7.55153591 3.0625 12.75 C3.05347656 13.73484375 3.04445312 14.7196875 3.03515625 15.734375 C3.02355469 16.48203125 3.01195312 17.2296875 3 18 C-0.68981921 12.46527118 -1.32161337 8.53947191 -1 2 C-0.67 1.34 -0.34 0.68 0 0 Z " fill="#BE0907" transform="translate(150,65)"/>
<path d="M0 0 C2.77579761 2.77579761 2.86061387 5.30306937 3.625 9.125 C3.88539063 10.40632813 4.14578125 11.68765625 4.4140625 13.0078125 C4.60742188 13.99523437 4.80078125 14.98265625 5 16 C2 14 2 14 1.4453125 12.125 C1.33960937 11.42375 1.23390625 10.7225 1.125 10 C0.73034549 7.86871169 0.73034549 7.86871169 0 6 C-2.48313064 4.40311361 -2.48313064 4.40311361 -5 4 C-3.35 2.68 -1.7 1.36 0 0 Z " fill="#450705" transform="translate(125,97)"/>
<path d="M0 0 C4.77314141 0.84231907 7.09969087 1.58846116 9.9375 5.625 C10.618125 6.73875 11.29875 7.8525 12 9 C11.67 9.66 11.34 10.32 11 11 C9.72486237 9.92173635 8.45507431 8.83714481 7.1875 7.75 C6.47980469 7.14671875 5.77210938 6.5434375 5.04296875 5.921875 C3.08110329 4.07629602 1.54330375 2.20054668 0 0 Z " fill="#B00A08" transform="translate(136,49)"/>
<path d="M0 0 C1.134375 0.020625 2.26875 0.04125 3.4375 0.0625 C2.7775 1.7125 2.1175 3.3625 1.4375 5.0625 C-0.8725 5.3925 -3.1825 5.7225 -5.5625 6.0625 C-4.48849278 0.07874549 -4.48849278 0.07874549 0 0 Z " fill="#720302" transform="translate(45.5625,47.9375)"/>
<path d="M0 0 C0.66 0 1.32 0 2 0 C4.32590854 3.63423209 4.16265833 6.77088331 4 11 C3.01 11.33 2.02 11.66 1 12 C0.63896464 10.18885568 0.28634496 8.37603177 -0.0625 6.5625 C-0.25972656 5.55316406 -0.45695312 4.54382813 -0.66015625 3.50390625 C-0.77230469 2.67761719 -0.88445312 1.85132812 -1 1 C-0.67 0.67 -0.34 0.34 0 0 Z " fill="#CC352C" transform="translate(76,79)"/>
<path d="M0 0 C0.25523438 0.59554687 0.51046875 1.19109375 0.7734375 1.8046875 C2.12003366 4.21483731 3.46696283 5.42876502 5.625 7.125 C7.5390625 8.6328125 7.5390625 8.6328125 9 10 C9 10.66 9 11.32 9 12 C6.525 11.01 6.525 11.01 4 10 C4 9.34 4 8.68 4 8 C3.38125 7.896875 2.7625 7.79375 2.125 7.6875 C0 7 0 7 -2 4 C-2 3.01 -2 2.02 -2 1 C-1.34 0.67 -0.68 0.34 0 0 Z " fill="#750805" transform="translate(45,94)"/>
<path d="M0 0 C4.22797927 2.81865285 4.22797927 2.81865285 6 5 C6.53855713 7.85646479 6.29847264 10.06501905 6 13 C5.01 13 4.02 13 3 13 C2.86722656 12.31292969 2.73445313 11.62585938 2.59765625 10.91796875 C2.42105469 10.01691406 2.24445313 9.11585937 2.0625 8.1875 C1.88847656 7.29417969 1.71445313 6.40085937 1.53515625 5.48046875 C1.02258847 2.88602829 1.02258847 2.88602829 0 0 Z " fill="#CA342B" transform="translate(118,78)"/>
<path d="M0 0 C2.31 0 4.62 0 7 0 C7 1.65 7 3.3 7 5 C4.69 5 2.38 5 0 5 C0 3.35 0 1.7 0 0 Z " fill="#7A5B6A" transform="translate(120,66)"/>
<path d="M0 0 C0.99 0.33 1.98 0.66 3 1 C3.91450659 3.65444445 4.6250668 6.15275312 5.25 8.875 C5.435625 9.60847656 5.62125 10.34195313 5.8125 11.09765625 C7.13457341 16.59627976 7.13457341 16.59627976 6 20 C4.99513105 17.04329782 3.99693976 14.08438423 3 11.125 C2.71382813 10.28324219 2.42765625 9.44148438 2.1328125 8.57421875 C1.86210938 7.76855469 1.59140625 6.96289062 1.3125 6.1328125 C1.06113281 5.38918457 0.80976562 4.64555664 0.55078125 3.87939453 C0 2 0 2 0 0 Z " fill="#461915" transform="translate(123,102)"/>
<path d="M0 0 C3.16115776 1.36983503 3.9927092 1.9890638 6 5 C6.125 7.6875 6.125 7.6875 6 10 C4.68 10.33 3.36 10.66 2 11 C1.77213542 9.01432292 1.54427083 7.02864583 1.31640625 5.04296875 C1.02829265 2.80603607 1.02829265 2.80603607 0 0 Z " fill="#2F1C17" transform="translate(71,79)"/>
<path d="M0 0 C1.32 0.66 2.64 1.32 4 2 C2.7260411 4.03833424 1.38938077 6.03852126 0 8 C-0.66 8 -1.32 8 -2 8 C-2.33 8.66 -2.66 9.32 -3 10 C-3.75 7.8125 -3.75 7.8125 -4 5 C-2.0625 2.1875 -2.0625 2.1875 0 0 Z " fill="#650302" transform="translate(103,78)"/>
<path d="M0 0 C2.97 0 5.94 0 9 0 C9.33 0.99 9.66 1.98 10 3 C8 5 8 5 5.375 5.125 C4.59125 5.08375 3.8075 5.0425 3 5 C3 4.34 3 3.68 3 3 C2.34 3 1.68 3 1 3 C0.67 2.01 0.34 1.02 0 0 Z " fill="#7B0906" transform="translate(84,78)"/>
<path d="M0 0 C1.8871875 0.0309375 1.8871875 0.0309375 3.8125 0.0625 C3.4825 1.0525 3.1525 2.0425 2.8125 3.0625 C-3.6225 3.5575 -3.6225 3.5575 -10.1875 4.0625 C-6.68766122 0.56266122 -4.74438704 -0.07777684 0 0 Z " fill="#210E0C" transform="translate(49.1875,44.9375)"/>
<path d="M0 0 C7.42857143 3.14285714 7.42857143 3.14285714 11 5 C11 5.66 11 6.32 11 7 C7.7 6.34 4.4 5.68 1 5 C0.67 3.35 0.34 1.7 0 0 Z " fill="#3E0402" transform="translate(105,97)"/>
<path d="M0 0 C1.65 0.33 3.3 0.66 5 1 C4.67 2.65 4.34 4.3 4 6 C2.35 5.67 0.7 5.34 -1 5 C-0.67 3.35 -0.34 1.7 0 0 Z " fill="#61605D" transform="translate(88,85)"/>
<path d="M0 0 C2.0625 0.4375 2.0625 0.4375 4 1 C4 2.65 4 4.3 4 6 C2.0625 6.5625 2.0625 6.5625 0 7 C-1 6 -1 6 -1.125 3.5 C-1 1 -1 1 0 0 Z " fill="#261612" transform="translate(60,52)"/>
<path d="M0 0 C0.66 0.33 1.32 0.66 2 1 C1.484375 1.845625 0.96875 2.69125 0.4375 3.5625 C-1.26912197 7.64355254 -1.04226385 9.75077047 0 14 C0.99 15.485 0.99 15.485 2 17 C-1.875 15.125 -1.875 15.125 -3 14 C-3.15135944 12.2127943 -3.22175778 10.41838124 -3.25 8.625 C-3.28867187 7.15933594 -3.28867187 7.15933594 -3.328125 5.6640625 C-3 3 -3 3 -1.484375 1.1484375 C-0.99453125 0.76945312 -0.5046875 0.39046875 0 0 Z " fill="#4E0302" transform="translate(52,85)"/>
<path d="M0 0 C2.31 1.98 4.62 3.96 7 6 C6.38125 6.433125 5.7625 6.86625 5.125 7.3125 C2.7802755 8.99740483 2.7802755 8.99740483 1 12 C0.67 8.04 0.34 4.08 0 0 Z " fill="#290605" transform="translate(55,95)"/>
<path d="M0 0 C1.32 0 2.64 0 4 0 C4 2.31 4 4.62 4 7 C2.68 7 1.36 7 0 7 C0 4.69 0 2.38 0 0 Z " fill="#241914" transform="translate(116,52)"/>
<path d="M0 0 C2.375 0.1875 2.375 0.1875 5 1 C6.4375 3.3125 6.4375 3.3125 7 6 C6.125 8.3125 6.125 8.3125 5 10 C4.67 10 4.34 10 4 10 C3.566875 8.3603125 3.566875 8.3603125 3.125 6.6875 C2.18106796 2.95986155 2.18106796 2.95986155 0 0 Z " fill="#31211C" transform="translate(114,79)"/>
<path d="M0 0 C0.66 0 1.32 0 2 0 C4 3 4 3 4 6 C2.02 6 0.04 6 -2 6 C-1.125 1.125 -1.125 1.125 0 0 Z " fill="#37807A" transform="translate(132,55)"/>
<path d="M0 0 C6.0546875 -0.1953125 6.0546875 -0.1953125 8 0 C8.66 0.66 9.32 1.32 10 2 C9 3 9 3 5.4375 3.0625 C4.303125 3.041875 3.16875 3.02125 2 3 C2 2.34 2 1.68 2 1 C1.34 0.67 0.68 0.34 0 0 Z " fill="#580302" transform="translate(66,99)"/>
<path d="M0 0 C0.99 0.33 1.98 0.66 3 1 C3 1.99 3 2.98 3 4 C3.99 4.33 4.98 4.66 6 5 C6 5.99 6 6.98 6 8 C4.68 7.67 3.36 7.34 2 7 C1.34 4.69 0.68 2.38 0 0 Z " fill="#1C1612" transform="translate(23,125)"/>
<path d="M0 0 C2.97 0 5.94 0 9 0 C7.68 0.33 6.36 0.66 5 1 C5 1.99 5 2.98 5 4 C2.525 3.01 2.525 3.01 0 2 C0 1.34 0 0.68 0 0 Z " fill="#660201" transform="translate(61,95)"/>
<path d="M0 0 C0.6875 1.6875 0.6875 1.6875 1 4 C-0.25 6.6875 -0.25 6.6875 -2 9 C-2.99 9.33 -3.98 9.66 -5 10 C-3.33333333 6.66666667 -1.66666667 3.33333333 0 0 Z " fill="#1A0504" transform="translate(120,85)"/>
<path d="M0 0 C0.3403125 0.928125 0.3403125 0.928125 0.6875 1.875 C2.37929835 4.61410209 3.99244161 5.05024472 7 6 C4 8 4 8 1.3125 7.625 C0.549375 7.41875 -0.21375 7.2125 -1 7 C-0.67 4.69 -0.34 2.38 0 0 Z " fill="#980E0A" transform="translate(127,77)"/>
<path d="M0 0 C1.65 0 3.3 0 5 0 C5 0.66 5 1.32 5 2 C5.99 2.33 6.98 2.66 8 3 C7.01 3.33 6.02 3.66 5 4 C2.3125 2.625 2.3125 2.625 0 1 C0 0.67 0 0.34 0 0 Z " fill="#580302" transform="translate(111,99)"/>
<path d="M0 0 C1.32 0.33 2.64 0.66 4 1 C3.67 2.32 3.34 3.64 3 5 C2.01 5 1.02 5 0 5 C0 3.35 0 1.7 0 0 Z " fill="#3D3530" transform="translate(41,66)"/>
</svg>
